<?xml version="1.0" encoding="utf-8"?>
<!-- Generator: Adobe Illustrator 24.2.1, SVG Export Plug-In . SVG Version: 6.00 Build 0)  -->
<svg version="1.1" id="Layer_1" xmlns="http://www.w3.org/2000/svg" xmlns:xlink="http://www.w3.org/1999/xlink" x="0px" y="0px"
	 viewBox="0 0 200 200" style="enable-background:new 0 0 200 200;" xml:space="preserve">
<style type="text/css">
	.st0{fill:#333333;stroke:#FFFFFF;stroke-miterlimit:10;}
	.st1{fill:#00AEEF;}
	.st2{fill:#FFFFFF;}
	.st3{fill:#FF1C0E;}
	.st4{fill:#FFF200;}
	.st5{fill:none;stroke:#231F20;stroke-miterlimit:10;}
	.st6{fill:#3EA999;}
	.st7{fill:#FFFFFF;stroke:#FFFFFF;stroke-miterlimit:10;}
	.st8{fill:#BCBEC0;}
	.st9{fill:#FFFFFF;stroke:#231F20;stroke-miterlimit:10;}
	.st10{fill:#333333;}
	.st11{fill:#54667A;}
	.st12{fill:#FF0000;}
	.st13{fill:#06BE34;}
	.st14{fill:#EEEEEE;}
	.st15{clip-path:url(#SVGID_2_);fill:#3E82F1;}
	.st16{clip-path:url(#SVGID_4_);fill:#32A753;}
	.st17{clip-path:url(#SVGID_6_);fill:#F9BB00;}
	.st18{clip-path:url(#SVGID_8_);fill:#E74133;}
	.st19{fill:#FAE300;}
	.st20{fill:#391B1B;}
	.st21{fill:none;stroke:#231F20;stroke-width:5;stroke-miterlimit:10;}
	.st22{fill:#ED1C24;stroke:#231F20;stroke-width:5;stroke-miterlimit:10;}
	.st23{fill:none;stroke:#000000;stroke-width:5;stroke-miterlimit:10;}
	.st24{fill:#231F20;}
	.st25{fill:#FBB040;}
	.st26{fill:none;}
	.st27{fill:#FAD300;}
</style>
<g>
	<g>
		<g>
			<circle class="st11" cx="99.9" cy="100.1" r="99.4"/>
		</g>
	</g>
	<g>
		<g>
			<path class="st2" d="M31.8,125.7h15.6V78H34.6v-7.1c6.7-1.2,11.4-2.9,15.5-5.4h8.4v60.2h14v9.2H31.8V125.7z"/>
			<path class="st2" d="M74.5,99.9c0-23.4,8.9-35.8,23.1-35.8c14.2,0,23.1,12.5,23.1,35.8c0,23.4-8.8,36.2-23.1,36.2
				C83.4,136.1,74.5,123.2,74.5,99.9z M109.9,99.9c0-20-5.1-26.9-12.4-26.9s-12.4,7-12.4,26.9c0,20,5.1,27.4,12.4,27.4
				S109.9,119.8,109.9,99.9z"/>
			<path class="st2" d="M124.4,109.4c0-7.3,3.4-11.4,8.5-11.4c5.1,0,8.5,4.1,8.5,11.4c0,7.3-3.5,11.5-8.5,11.5
				C127.8,121,124.4,116.7,124.4,109.4z M137.2,109.4c0-5.6-1.8-8.1-4.4-8.1c-2.5,0-4.3,2.5-4.3,8.1c0,5.6,1.8,8.2,4.3,8.2
				C135.4,117.6,137.2,115,137.2,109.4z M153.8,98h3.6l-19.9,37.6H134L153.8,98z M150.1,124.1c0-7.3,3.5-11.4,8.5-11.4
				c5,0,8.5,4.1,8.5,11.4c0,7.3-3.5,11.5-8.5,11.5C153.5,135.6,150.1,131.4,150.1,124.1z M163,124.1c0-5.6-1.8-8.1-4.3-8.1
				c-2.6,0-4.3,2.5-4.3,8.1c0,5.6,1.8,8.2,4.3,8.2C161.1,132.3,163,129.7,163,124.1z"/>
		</g>
	</g>
</g>
</svg>
