<?xml version="1.0" encoding="utf-8"?>
<!-- Generator: Adobe Illustrator 24.2.1, SVG Export Plug-In . SVG Version: 6.00 Build 0)  -->
<svg version="1.1" id="Layer_1" xmlns="http://www.w3.org/2000/svg" xmlns:xlink="http://www.w3.org/1999/xlink" x="0px" y="0px"
	 viewBox="0 0 200 200" style="enable-background:new 0 0 200 200;" xml:space="preserve">
<style type="text/css">
	.st0{fill:#333333;stroke:#FFFFFF;stroke-miterlimit:10;}
	.st1{fill:#00AEEF;}
	.st2{fill:#FFFFFF;}
	.st3{fill:#FF1C0E;}
	.st4{fill:#FFF200;}
	.st5{fill:none;stroke:#231F20;stroke-miterlimit:10;}
	.st6{fill:#3EA999;}
	.st7{fill:#FFFFFF;stroke:#FFFFFF;stroke-miterlimit:10;}
	.st8{fill:#BCBEC0;}
	.st9{fill:#FFFFFF;stroke:#231F20;stroke-miterlimit:10;}
	.st10{fill:#333333;}
	.st11{fill:#54667A;}
	.st12{fill:#FF0000;}
	.st13{fill:#06BE34;}
	.st14{fill:#EEEEEE;}
	.st15{clip-path:url(#SVGID_2_);fill:#3E82F1;}
	.st16{clip-path:url(#SVGID_4_);fill:#32A753;}
	.st17{clip-path:url(#SVGID_6_);fill:#F9BB00;}
	.st18{clip-path:url(#SVGID_8_);fill:#E74133;}
	.st19{fill:#FAE300;}
	.st20{fill:#391B1B;}
	.st21{fill:none;stroke:#231F20;stroke-width:5;stroke-miterlimit:10;}
	.st22{fill:#ED1C24;stroke:#231F20;stroke-width:5;stroke-miterlimit:10;}
	.st23{fill:none;stroke:#000000;stroke-width:5;stroke-miterlimit:10;}
	.st24{fill:#231F20;}
	.st25{fill:#FBB040;}
	.st26{fill:none;}
	.st27{fill:#FAD300;}
</style>
<g>
	<path class="st19" d="M97.3,0.9c-7.6,0.4-13.8,6.8-13.9,14.5c0,4,1.5,7.5,4,10.2C63,28.8,44,49.8,44,75.1v35c0,6.6-1.7,13-5,18.7
		l-18.3,31.6c-2.9,5.1,0.7,11.5,6.6,11.5H99V0.9C98.4,0.8,97.9,0.8,97.3,0.9z"/>
	<path class="st27" d="M177.3,159.8l-17.9-30.9c-3.5-6.1-5.4-13-5.4-20V75.1c0-25.9-20-47.3-45.2-49.8c2.4-2.6,3.8-6,3.8-9.9
		c0-7.8-6.1-14.1-13.7-14.6V172h71.4C176.6,172,180.5,165.2,177.3,159.8z"/>
	<path class="st19" d="M99,199.5v-22.8H76.1C76.1,189.3,86.4,199.5,99,199.5z"/>
	<path class="st27" d="M121.8,176.7H99v22.8C111.6,199.5,121.8,189.3,121.8,176.7z"/>
</g>
</svg>
