<?xml version="1.0" encoding="utf-8"?>
<!-- Generator: Adobe Illustrator 24.2.1, SVG Export Plug-In . SVG Version: 6.00 Build 0)  -->
<svg version="1.1" id="Layer_1" xmlns="http://www.w3.org/2000/svg" xmlns:xlink="http://www.w3.org/1999/xlink" x="0px" y="0px"
	 viewBox="0 0 200 200" style="enable-background:new 0 0 200 200;" xml:space="preserve">
<style type="text/css">
	.st0{fill:#333333;stroke:#FFFFFF;stroke-miterlimit:10;}
	.st1{fill:#00AEEF;}
	.st2{fill:#FFFFFF;}
	.st3{fill:#FF1C0E;}
	.st4{fill:#FFF200;}
	.st5{fill:none;stroke:#231F20;stroke-miterlimit:10;}
	.st6{fill:#3EA999;}
	.st7{fill:#FFFFFF;stroke:#FFFFFF;stroke-miterlimit:10;}
	.st8{fill:#BCBEC0;}
	.st9{fill:#FFFFFF;stroke:#231F20;stroke-miterlimit:10;}
	.st10{fill:#333333;}
	.st11{fill:#54667A;}
	.st12{fill:#FF0000;}
	.st13{fill:#06BE34;}
	.st14{fill:#EEEEEE;}
	.st15{clip-path:url(#SVGID_2_);fill:#3E82F1;}
	.st16{clip-path:url(#SVGID_4_);fill:#32A753;}
	.st17{clip-path:url(#SVGID_6_);fill:#F9BB00;}
	.st18{clip-path:url(#SVGID_8_);fill:#E74133;}
	.st19{fill:#FAE300;}
	.st20{fill:#391B1B;}
	.st21{fill:none;stroke:#231F20;stroke-width:5;stroke-miterlimit:10;}
	.st22{fill:#ED1C24;stroke:#231F20;stroke-width:5;stroke-miterlimit:10;}
	.st23{fill:none;stroke:#000000;stroke-width:5;stroke-miterlimit:10;}
	.st24{fill:#231F20;}
	.st25{fill:#FBB040;}
	.st26{fill:none;}
	.st27{fill:#FAD300;}
</style>
<g>
	<path class="st25" d="M111.1,142.4l-8.7-7.2c-1.5-1.2-3.6-1.3-5.2-0.1l-9,6.8c-2.1,1.6-5.1,0.9-6.3-1.5l-5-10.1
		c-0.9-1.7-2.8-2.7-4.7-2.2l-11,2.6c-2.6,0.6-5-1.3-5.1-3.9l-0.4-11.3c-0.1-1.9-1.5-3.6-3.4-3.9l-11.1-2.1c-2.6-0.5-4.1-3.2-3.1-5.7
		l4.2-10.5c0.7-1.8,0.1-3.9-1.5-5l-9.3-6.5c-2.2-1.5-2.4-4.6-0.5-6.4l8.1-7.9c1.4-1.4,1.7-3.5,0.7-5.2l-5.8-9.7
		c-1.4-2.2-0.3-5.2,2.1-6.1l10.6-3.9c1.8-0.7,2.9-2.5,2.7-4.4l-1.4-11.2c-0.3-2.6,1.8-4.9,4.4-4.7l11.3,0.7c1.9,0.1,3.7-1.1,4.3-3
		l3.3-10.8c0.8-2.5,3.6-3.7,6-2.5l10,5.3c1.7,0.9,3.8,0.5,5.1-1l7.4-8.5c1.7-2,4.8-1.9,6.4,0.2l7,8.9c1.2,1.5,3.3,2,5.1,1.2
		l10.2-4.8c2.4-1.1,5.2,0.2,5.8,2.8l2.8,11c0.5,1.9,2.2,3.2,4.1,3.2l11.3-0.2c2.6-0.1,4.6,2.3,4.2,4.9l-1.9,11.1
		c-0.3,1.9,0.7,3.8,2.5,4.6l10.4,4.4c2.4,1,3.3,4,1.8,6.2l-6.3,9.4c-1.1,1.6-0.9,3.8,0.4,5.2l7.7,8.3c1.8,1.9,1.4,5-0.8,6.4l-9.6,6
		c-1.6,1-2.4,3.1-1.7,4.9l3.7,10.7c0.9,2.5-0.8,5.1-3.4,5.5l-11.2,1.6c-1.9,0.3-3.4,1.8-3.6,3.8l-1,11.3c-0.2,2.6-2.8,4.4-5.3,3.7
		l-10.9-3.1c-1.9-0.5-3.9,0.3-4.8,2l-5.5,9.9C116.1,143.5,113.1,144.1,111.1,142.4z"/>
	<circle class="st2" cx="101.1" cy="72.8" r="55.9"/>
	<g>
		<path class="st25" d="M65.6,48.9h6.9c4.6,0,7.9,1.5,7.9,5.5c0,2.1-1.2,4.2-3.2,4.8v0.2c2.5,0.5,4.4,2.3,4.4,5.3
			c0,4.4-3.6,6.5-8.6,6.5h-7.5V48.9z M72.1,58.3c3.4,0,4.8-1.3,4.8-3.4c0-2.3-1.6-3.2-4.7-3.2h-3.1v6.6H72.1z M72.7,68.5
			c3.5,0,5.5-1.2,5.5-4c0-2.5-1.9-3.6-5.5-3.6h-3.5v7.6H72.7z"/>
		<path class="st25" d="M85.8,48.9H99v3h-9.7v6.2h8.2v3h-8.2v7.2h10v3H85.8V48.9z"/>
		<path class="st25" d="M102.4,68.4l2.1-2.4c1.6,1.6,3.8,2.6,5.9,2.6c2.7,0,4.2-1.3,4.2-3.2c0-2-1.5-2.7-3.6-3.6l-3.1-1.3
			c-2.2-0.9-4.5-2.6-4.5-5.9c0-3.5,3.1-6.2,7.3-6.2c2.6,0,5.1,1.1,6.8,2.8l-1.8,2.2c-1.4-1.2-2.9-2-4.9-2c-2.3,0-3.8,1.1-3.8,2.9
			c0,1.9,1.8,2.7,3.6,3.4l3.1,1.3c2.6,1.1,4.5,2.8,4.5,6c0,3.6-3,6.5-7.9,6.5C107.3,71.7,104.5,70.5,102.4,68.4z"/>
		<path class="st25" d="M126.3,51.9h-6.5v-3h16.6v3h-6.6v19.4h-3.5V51.9z"/>
		<path class="st25" d="M63.6,93.6l1.4-1.6c1.1,1.1,2.5,1.8,4,1.8c1.8,0,2.8-0.8,2.8-2.1c0-1.4-1-1.8-2.4-2.4l-2.1-0.9
			c-1.4-0.6-3-1.7-3-3.9c0-2.3,2.1-4.1,4.9-4.1c1.7,0,3.4,0.7,4.5,1.9l-1.2,1.5c-0.9-0.8-2-1.3-3.3-1.3c-1.5,0-2.5,0.7-2.5,1.9
			c0,1.3,1.2,1.8,2.4,2.3l2,0.9c1.8,0.7,3,1.8,3,4c0,2.4-2,4.3-5.2,4.3C66.8,95.8,64.9,95,63.6,93.6z"/>
		<path class="st25" d="M76.9,80.7h8.8v2h-6.4v4.1h5.5v2h-5.5v4.8h6.7v2h-9V80.7z"/>
		<path class="st25" d="M89,80.7h2.3v12.9h6.3v2H89V80.7z"/>
		<path class="st25" d="M100.3,80.7h2.3v12.9h6.3v2h-8.7V80.7z"/>
		<path class="st25" d="M111.6,80.7h8.8v2h-6.4v4.1h5.5v2h-5.5v4.8h6.7v2h-9V80.7z"/>
		<path class="st25" d="M123.7,80.7h4.9c3.1,0,5.4,1.1,5.4,4.3c0,2.3-1.2,3.7-3.1,4.3l3.6,6.3h-2.6l-3.4-6h-2.4v6h-2.3V80.7z
			 M128.3,87.7c2.2,0,3.3-0.9,3.3-2.7c0-1.8-1.2-2.4-3.3-2.4h-2.2v5.1H128.3z"/>
	</g>
	<g>
		<polygon class="st25" points="112.1,149.4 112,149.1 112,149.1 		"/>
		<polygon class="st25" points="141.5,140.3 141.5,140.3 141.5,140.3 		"/>
		<line class="st25" x1="112" y1="149.1" x2="111.9" y2="148.8"/>
		<polygon class="st25" points="112,149.1 112,149.1 111.9,148.8 111.9,148.8 111.9,148.8 112,149.1 		"/>
		<polygon class="st25" points="160,187.9 139.2,176.8 131.3,199 112.1,149.4 112,149.1 111.9,148.8 118.2,144.1 125.2,145.2 
			127.8,145.6 129.1,144 132.9,139.5 141.2,139.5 141.5,140.3 141.5,140.3 141.5,140.3 141.8,140.8 		"/>
		<line class="st25" x1="141.5" y1="140.3" x2="141.3" y2="139.5"/>
		<polygon class="st25" points="141.5,140.3 141.5,140.3 141.2,139.5 141.3,139.5 141.5,140.3 		"/>
	</g>
	<g>
		<polygon class="st26" points="90.1,149.1 90,149.4 90.1,149.1 		"/>
		<polygon class="st26" points="60.6,140.3 60.6,140.3 60.6,140.3 		"/>
		<line class="st26" x1="90.3" y1="148.8" x2="90.1" y2="149.1"/>
		<polygon class="st26" points="90.3,148.8 90.1,149.1 90.1,149.1 90.1,149.1 90.3,148.8 90.3,148.8 		"/>
		<line class="st26" x1="60.9" y1="139.5" x2="60.6" y2="140.3"/>
		<polygon class="st26" points="60.9,139.5 60.6,140.3 60.6,140.3 60.6,140.3 60.9,139.5 		"/>
		<polygon class="st25" points="90.3,148.8 90.1,149.1 90,149.4 70.8,199 62.9,176.8 42.1,187.9 60.4,140.8 60.6,140.3 60.6,140.3 
			60.6,140.3 60.9,139.5 69.2,139.5 73,144 74.4,145.6 77,145.2 83.9,144.1 		"/>
	</g>
</g>
</svg>
