<?xml version="1.0" encoding="utf-8"?>
<!-- Generator: Adobe Illustrator 24.2.1, SVG Export Plug-In . SVG Version: 6.00 Build 0)  -->
<svg version="1.1" id="Layer_1" xmlns="http://www.w3.org/2000/svg" xmlns:xlink="http://www.w3.org/1999/xlink" x="0px" y="0px"
	 viewBox="0 0 200 200" style="enable-background:new 0 0 200 200;" xml:space="preserve">
<style type="text/css">
	.st0{fill:#333333;stroke:#FFFFFF;stroke-miterlimit:10;}
	.st1{fill:#00AEEF;}
	.st2{fill:#FFFFFF;}
	.st3{fill:#FF1C0E;}
	.st4{fill:#3EA999;}
	.st5{fill:#FFFFFF;stroke:#FFFFFF;stroke-miterlimit:10;}
	.st6{fill:#BCBEC0;}
	.st7{fill:#FFFFFF;stroke:#231F20;stroke-miterlimit:10;}
	.st8{fill:#333333;}
	.st9{fill:#54667A;}
	.st10{fill:#FF0000;}
	.st11{fill:#06BE34;}
	.st12{fill:#EEEEEE;}
	.st13{clip-path:url(#SVGID_2_);fill:#3E82F1;}
	.st14{clip-path:url(#SVGID_4_);fill:#32A753;}
	.st15{clip-path:url(#SVGID_6_);fill:#F9BB00;}
	.st16{clip-path:url(#SVGID_8_);fill:#E74133;}
	.st17{fill:#FAE300;}
	.st18{fill:#391B1B;}
	.st19{fill:none;stroke:#231F20;stroke-width:5;stroke-miterlimit:10;}
	.st20{fill:#ED1C24;stroke:#231F20;stroke-width:5;stroke-miterlimit:10;}
	.st21{fill:none;stroke:#000000;stroke-width:5;stroke-miterlimit:10;}
	.st22{fill:none;stroke:#231F20;stroke-miterlimit:10;}
	.st23{fill:#231F20;}
	.st24{fill:#FBB040;}
	.st25{fill:none;}
	.st26{fill:#FAD300;}
	.st27{fill:#FFF200;}
</style>
<g>
	<path class="st1" d="M179.6,198.3H22.7c-10.9,0-19.9-9-19.9-19.9V21.6c0-10.9,9-19.9,19.9-19.9h156.8c10.9,0,19.9,9,19.9,19.9
		v156.8C199.5,189.4,190.5,198.3,179.6,198.3z"/>
	<g>
		<path class="st2" d="M42.2,101.4v5.9h16.6v18.6h-6.6v-13.4H18.5v-5.2h17.1v-5.9h-23v-5.3h52.8v5.3H42.2z M58.6,91.4H19.5V69.5h6.6
			v5.9H52v-5.9h6.6V91.4z M52,80.5H26.1v5.7H52V80.5z"/>
		<path class="st2" d="M90,83.4c0,9.7,3.7,19.3,11.7,23.7l-3.9,5.2c-5.4-3-8.9-8.4-10.9-14.8c-2.1,7-5.9,13.1-11.5,16.4l-4.2-4.9
			c8.4-4.9,12.4-15.2,12.4-25.1V73.4H90V83.4z M121.8,68.1v57.8h-6.3V96.4h-6.5v26.8h-6.2v-54h6.2V91h6.5V68.1H121.8z"/>
		<path class="st2" d="M183.9,98.3v5.3h-52.7v-5.3h23v-4.7H138V69.7h39.7v5.1h-33v4.4h31.6v4.9h-31.6v4.5h33.4v5.1H161v4.7H183.9z
			 M177.6,116.5c0,6.1-7.4,9.4-20.1,9.4c-12.6,0-20.1-3.3-20.1-9.4c0-6.1,7.4-9.3,20.1-9.3C170.3,107.2,177.6,110.4,177.6,116.5z
			 M171,116.5c0-2.9-4.6-4.4-13.4-4.4c-8.8,0-13.4,1.5-13.4,4.4c0,3.1,4.6,4.5,13.4,4.5C166.4,121,171,119.6,171,116.5z"/>
	</g>
</g>
</svg>
