<?xml version="1.0" encoding="utf-8"?>
<!-- Generator: Adobe Illustrator 24.2.1, SVG Export Plug-In . SVG Version: 6.00 Build 0)  -->
<svg version="1.1" id="Layer_1" xmlns="http://www.w3.org/2000/svg" xmlns:xlink="http://www.w3.org/1999/xlink" x="0px" y="0px"
	 viewBox="0 0 200 200" style="enable-background:new 0 0 200 200;" xml:space="preserve">
<style type="text/css">
	.st0{fill:#333333;stroke:#FFFFFF;stroke-miterlimit:10;}
	.st1{fill:#00AEEF;}
	.st2{fill:#FFFFFF;}
	.st3{fill:#FF1C0E;}
	.st4{fill:#FFF200;}
	.st5{fill:none;stroke:#231F20;stroke-miterlimit:10;}
	.st6{fill:#3EA999;}
	.st7{fill:#FFFFFF;stroke:#FFFFFF;stroke-miterlimit:10;}
	.st8{fill:#BCBEC0;}
	.st9{fill:#FFFFFF;stroke:#231F20;stroke-miterlimit:10;}
	.st10{fill:#333333;}
	.st11{fill:#54667A;}
	.st12{fill:#FF0000;}
	.st13{fill:#06BE34;}
	.st14{fill:#EEEEEE;}
	.st15{clip-path:url(#SVGID_2_);fill:#3E82F1;}
	.st16{clip-path:url(#SVGID_4_);fill:#32A753;}
	.st17{clip-path:url(#SVGID_6_);fill:#F9BB00;}
	.st18{clip-path:url(#SVGID_8_);fill:#E74133;}
	.st19{fill:#FAE300;}
	.st20{fill:#391B1B;}
	.st21{fill:none;stroke:#231F20;stroke-width:5;stroke-miterlimit:10;}
	.st22{fill:#ED1C24;stroke:#231F20;stroke-width:5;stroke-miterlimit:10;}
	.st23{fill:none;stroke:#000000;stroke-width:5;stroke-miterlimit:10;}
	.st24{fill:#231F20;}
	.st25{fill:#FBB040;}
	.st26{fill:none;}
	.st27{fill:#FAD300;}
</style>
<g>
	<path class="st1" d="M187.8,199.8h-174c-6.6,0-12-5.4-12-12v-174c0-6.6,5.4-12,12-12h174c6.6,0,12,5.4,12,12v174
		C199.8,194.4,194.4,199.8,187.8,199.8z"/>
	<g>
		<g>
			<path class="st2" d="M30.5,44.2c3.3-0.7,8.5-1.2,13.8-1.2c7.6,0,12.4,1.3,16.1,4.3c3,2.3,4.9,5.8,4.9,10.5c0,5.7-3.7,10.8-9.9,13
				V71c5.6,1.4,12.1,6.1,12.1,14.9c0,5.1-2,9-5,11.9c-4.1,3.8-10.7,5.6-20.2,5.6c-5.2,0-9.2-0.4-11.7-0.7V44.2z M38.1,68.5h6.9
				c8,0,12.7-4.2,12.7-10c0-7-5.2-9.7-12.9-9.7c-3.5,0-5.5,0.3-6.7,0.5V68.5z M38.1,97c1.5,0.3,3.6,0.4,6.3,0.4
				c7.8,0,15-2.9,15-11.5c0-8.1-6.9-11.5-15.1-11.5h-6.3V97z"/>
			<path class="st2" d="M85.1,43.4v35.2c0,13.3,5.8,19,13.6,19c8.7,0,14.2-5.8,14.2-19V43.4h7.6V78c0,18.2-9.5,25.7-22.2,25.7
				c-12,0-21-7-21-25.4v-35H85.1z"/>
			<path class="st2" d="M146.8,102.8V77.6l-18.5-34.2h8.6l8.3,16.4c2.3,4.5,4,8.1,5.8,12.3h0.2c1.6-3.9,3.6-7.8,5.9-12.3l8.4-16.4
				h8.6l-19.6,34.1v25.3H146.8z"/>
			<path class="st2" d="M29.2,159.7v-47.5h6.6l15,24c3.5,5.6,6.2,10.6,8.4,15.4l0.1-0.1c-0.6-6.3-0.7-12.1-0.7-19.5v-19.9h5.7v47.5
				h-6.1l-14.9-24.1c-3.3-5.3-6.4-10.7-8.8-15.9l-0.2,0.1c0.3,6,0.5,11.7,0.5,19.6v20.3H29.2z"/>
			<path class="st2" d="M114.9,135.5c0,16.4-9.8,25-21.7,25c-12.4,0-21.1-9.7-21.1-24.1c0-15.1,9.2-25,21.7-25
				C106.7,111.4,114.9,121.4,114.9,135.5z M78.6,136.2c0,10.2,5.4,19.2,14.9,19.2c9.6,0,15-9,15-19.7c0-9.4-4.9-19.3-14.9-19.3
				C83.6,116.4,78.6,125.8,78.6,136.2z"/>
			<path class="st2" d="M130.4,159.7l-11.9-47.5h6.4l5.6,24c1.4,5.9,2.6,11.8,3.5,16.4h0.1c0.8-4.7,2.2-10.4,3.8-16.5l6.3-24h6.3
				l5.7,24.1c1.3,5.6,2.6,11.3,3.3,16.3h0.1c1-5.2,2.3-10.5,3.8-16.4l6.2-24h6.2l-13.3,47.5h-6.3l-5.9-24.7
				c-1.5-6.1-2.4-10.7-3.1-15.5H147c-0.8,4.7-1.9,9.4-3.6,15.5l-6.7,24.7H130.4z"/>
		</g>
	</g>
</g>
</svg>
