<?xml version="1.0" encoding="utf-8"?>
<!-- Generator: Adobe Illustrator 24.2.1, SVG Export Plug-In . SVG Version: 6.00 Build 0)  -->
<svg version="1.1" id="Layer_1" xmlns="http://www.w3.org/2000/svg" xmlns:xlink="http://www.w3.org/1999/xlink" x="0px" y="0px"
	 viewBox="0 0 200 200" style="enable-background:new 0 0 200 200;" xml:space="preserve">
<style type="text/css">
	.st0{fill:#333333;stroke:#FFFFFF;stroke-miterlimit:10;}
	.st1{fill:#00AEEF;}
	.st2{fill:#FFFFFF;}
	.st3{fill:#FF1C0E;}
	.st4{fill:#3EA999;}
	.st5{fill:#FFFFFF;stroke:#FFFFFF;stroke-miterlimit:10;}
	.st6{fill:#BCBEC0;}
	.st7{fill:#FFFFFF;stroke:#231F20;stroke-miterlimit:10;}
	.st8{fill:#333333;}
	.st9{fill:#54667A;}
	.st10{fill:#FF0000;}
	.st11{fill:#06BE34;}
	.st12{fill:#EEEEEE;}
	.st13{clip-path:url(#SVGID_2_);fill:#3E82F1;}
	.st14{clip-path:url(#SVGID_4_);fill:#32A753;}
	.st15{clip-path:url(#SVGID_6_);fill:#F9BB00;}
	.st16{clip-path:url(#SVGID_8_);fill:#E74133;}
	.st17{fill:#FAE300;}
	.st18{fill:#391B1B;}
	.st19{fill:none;stroke:#231F20;stroke-width:5;stroke-miterlimit:10;}
	.st20{fill:#ED1C24;stroke:#231F20;stroke-width:5;stroke-miterlimit:10;}
	.st21{fill:none;stroke:#000000;stroke-width:5;stroke-miterlimit:10;}
	.st22{fill:none;stroke:#231F20;stroke-miterlimit:10;}
	.st23{fill:#231F20;}
	.st24{fill:#FBB040;}
	.st25{fill:none;}
	.st26{fill:#FAD300;}
	.st27{fill:#FFF200;}
</style>
<g>
	<circle class="st27" cx="100.2" cy="100.5" r="99.4"/>
	<circle class="st24" cx="100.2" cy="99" r="80"/>
	<path class="st27" d="M122.1,67.1c5.2,3.7,8,8.8,8.5,15.5h-17.8c-0.4-2.7-1.6-4.8-3.6-6.5c-2-1.6-4.7-2.4-8.3-2.4
		c-4.4,0-8.1,2.2-11.1,6.5c-3.1,4.4-4.6,10.5-4.6,18.4c0,8.5,1.5,15.2,4.5,20.2c3,5,6.9,7.5,11.7,7.5c3.8,0,6.9-1.1,9.3-3.4
		c2.4-2.2,3.8-5.6,4.1-10.1h17.8c-0.4,7.2-3.3,13.2-8.6,18.1c-5.3,4.9-12.7,7.4-22.2,7.4c-10.2,0-18.4-3.5-24.6-10.4
		c-6.3-6.9-9.4-16.6-9.4-29c0-12.2,3.3-21.4,10-27.8c6.6-6.4,14.9-9.6,24.7-9.6C110.4,61.6,116.9,63.4,122.1,67.1z"/>
</g>
</svg>
