<?xml version="1.0" encoding="utf-8"?>
<!-- Generator: Adobe Illustrator 24.2.1, SVG Export Plug-In . SVG Version: 6.00 Build 0)  -->
<svg version="1.1" id="Layer_1" xmlns="http://www.w3.org/2000/svg" xmlns:xlink="http://www.w3.org/1999/xlink" x="0px" y="0px"
	 viewBox="0 0 200 200" style="enable-background:new 0 0 200 200;" xml:space="preserve">
<style type="text/css">
	.st0{fill:#333333;stroke:#FFFFFF;stroke-miterlimit:10;}
	.st1{fill:#00AEEF;}
	.st2{fill:#FFFFFF;}
	.st3{fill:#FF1C0E;}
	.st4{fill:#3EA999;}
	.st5{fill:#FFFFFF;stroke:#FFFFFF;stroke-miterlimit:10;}
	.st6{fill:#FFFFFF;stroke:#BCBEC0;stroke-miterlimit:10;}
	.st7{fill:#BCBEC0;}
	.st8{fill:#FFFFFF;stroke:#231F20;stroke-miterlimit:10;}
	.st9{fill:#333333;}
	.st10{fill:#54667A;}
	.st11{fill:#FF0000;}
	.st12{fill:#06BE34;}
	.st13{fill:#EEEEEE;}
	.st14{clip-path:url(#SVGID_2_);fill:#3E82F1;}
	.st15{clip-path:url(#SVGID_4_);fill:#32A753;}
	.st16{clip-path:url(#SVGID_6_);fill:#F9BB00;}
	.st17{clip-path:url(#SVGID_8_);fill:#E74133;}
	.st18{fill:#FAE300;}
	.st19{fill:#391B1B;}
	.st20{fill:#FFFFFF;stroke:#231F20;stroke-width:5;stroke-miterlimit:10;}
	.st21{fill:#ED1C24;stroke:#231F20;stroke-width:5;stroke-miterlimit:10;}
	.st22{fill:#F9ED32;stroke:#231F20;stroke-width:5;stroke-miterlimit:10;}
	.st23{fill:none;stroke:#231F20;stroke-width:5;stroke-miterlimit:10;}
	.st24{fill:none;stroke:#000000;stroke-width:5;stroke-miterlimit:10;}
	.st25{fill:none;stroke:#231F20;stroke-miterlimit:10;}
	.st26{fill:#231F20;}
	.st27{fill:#FBB040;}
	.st28{fill:none;}
	.st29{fill:#FFFFFF;stroke:#FFFFFF;stroke-width:5;stroke-miterlimit:10;}
	.st30{fill:#FAD300;}
	.st31{fill:#FFF200;}
</style>
<g>
	<g>
		<path class="st20" d="M3,178.2c0,6.5,5.3,11.8,11.8,11.8h170.5c6.5,0,11.8-5.3,11.8-11.8V57.7H3V178.2z"/>
		<path class="st21" d="M185.2,29.1H14.8C8.3,29.1,3,34.4,3,40.9v16.8h194V40.9C197,34.4,191.7,29.1,185.2,29.1z"/>
	</g>
	<path class="st22" d="M117.6,155.9l-14.7-7.8c-1.2-0.7-2.7-0.7-3.9,0l-14.7,7.7c-3.1,1.6-6.7-1-6.1-4.5l2.9-16.4
		c0.2-1.4-0.2-2.8-1.2-3.7l-11.9-11.6c-2.5-2.5-1.1-6.7,2.4-7.2l16.5-2.3c1.4-0.2,2.6-1.1,3.2-2.3l7.4-14.9c1.6-3.1,6-3.1,7.6,0
		l7.3,14.9c0.6,1.3,1.8,2.1,3.2,2.3l16.4,2.4c3.5,0.5,4.8,4.8,2.3,7.2l-11.9,11.6c-1,1-1.5,2.4-1.2,3.7l2.8,16.4
		C124.4,154.9,120.7,157.5,117.6,155.9z"/>
	<line class="st23" x1="39.9" y1="10.1" x2="39.9" y2="29.1"/>
	<line class="st23" x1="161.5" y1="10.1" x2="161.5" y2="29.1"/>
</g>
<g>
</g>
</svg>
