<?xml version="1.0" encoding="utf-8"?>
<!-- Generator: Adobe Illustrator 24.2.1, SVG Export Plug-In . SVG Version: 6.00 Build 0)  -->
<svg version="1.1" id="Layer_1" xmlns="http://www.w3.org/2000/svg" xmlns:xlink="http://www.w3.org/1999/xlink" x="0px" y="0px"
	 viewBox="0 0 200 200" style="enable-background:new 0 0 200 200;" xml:space="preserve">
<style type="text/css">
	.st0{fill:#333333;stroke:#FFFFFF;stroke-miterlimit:10;}
	.st1{fill:#00AEEF;}
	.st2{fill:#FFFFFF;}
	.st3{fill:#FF1C0E;}
	.st4{fill:#FFF200;}
	.st5{fill:none;stroke:#231F20;stroke-miterlimit:10;}
	.st6{fill:#3EA999;}
	.st7{fill:#FFFFFF;stroke:#FFFFFF;stroke-miterlimit:10;}
	.st8{fill:#BCBEC0;}
	.st9{fill:#FFFFFF;stroke:#231F20;stroke-miterlimit:10;}
	.st10{fill:#333333;}
	.st11{fill:#54667A;}
	.st12{fill:#FF0000;}
	.st13{fill:#06BE34;}
	.st14{fill:#EEEEEE;}
	.st15{clip-path:url(#SVGID_2_);fill:#3E82F1;}
	.st16{clip-path:url(#SVGID_4_);fill:#32A753;}
	.st17{clip-path:url(#SVGID_6_);fill:#F9BB00;}
	.st18{clip-path:url(#SVGID_8_);fill:#E74133;}
	.st19{fill:#FAE300;}
	.st20{fill:#391B1B;}
	.st21{fill:none;stroke:#231F20;stroke-width:5;stroke-miterlimit:10;}
	.st22{fill:#ED1C24;stroke:#231F20;stroke-width:5;stroke-miterlimit:10;}
	.st23{fill:none;stroke:#000000;stroke-width:5;stroke-miterlimit:10;}
	.st24{fill:#231F20;}
	.st25{fill:#FBB040;}
	.st26{fill:none;}
	.st27{fill:#FAD300;}
</style>
<g>
	<g>
		<path class="st14" d="M100.8,199h-1.7c-26.2,0-51-10.3-69.7-29c-18.7-18.7-29-43.4-29-69.7v-0.1c0-26.2,10.3-51,29-69.7
			c18.7-18.7,43.4-29,69.7-29h1.7c26.2,0,51,10.3,69.7,29c18.7,18.7,29,43.4,29,69.7v0.1c0,26.2-10.3,51-29,69.7
			C151.8,188.7,127.1,199,100.8,199z M99.2,7.5c-24.6,0-47.9,9.7-65.4,27.2S6.5,75.6,6.5,100.2v0.1c0,24.6,9.7,47.9,27.2,65.4
			S74.5,193,99.2,193h1.7c24.6,0,47.9-9.7,65.4-27.2s27.2-40.8,27.2-65.4v-0.1c0-24.6-9.7-47.9-27.2-65.4S125.5,7.5,100.8,7.5H99.2z
			"/>
	</g>
	<g>
		<g>
			<defs>
				<path id="SVGID_1_" d="M169.4,101.9c0-5-0.5-9.8-1.3-14.5h-66.7v27.4h38.1c-1.6,8.8-6.6,16.3-14.1,21.4v17.8h22.9
					C161.6,141.6,169.4,123.4,169.4,101.9L169.4,101.9L169.4,101.9z M169.4,101.9"/>
			</defs>
			<clipPath id="SVGID_2_">
				<use xlink:href="#SVGID_1_"  style="overflow:visible;"/>
			</clipPath>
			<rect id="XMLID_120_" x="62.1" y="48.1" class="st15" width="146.6" height="145.1"/>
		</g>
		<g>
			<defs>
				<path id="SVGID_3_" d="M101.4,171c19.1,0,35.1-6.3,46.8-17.1l-22.9-17.8c-6.3,4.2-14.4,6.8-24,6.8c-18.4,0-34-12.4-39.6-29.2
					H38.2V132C49.8,155.2,73.8,171,101.4,171L101.4,171L101.4,171z M101.4,171"/>
			</defs>
			<clipPath id="SVGID_4_">
				<use xlink:href="#SVGID_3_"  style="overflow:visible;"/>
			</clipPath>
			<rect id="XMLID_117_" x="-1.1" y="74.4" class="st16" width="188.7" height="136"/>
		</g>
		<g>
			<defs>
				<path id="SVGID_5_" d="M61.8,113.7c-1.4-4.2-2.2-8.8-2.2-13.4c0-4.7,0.8-9.2,2.2-13.4V68.5H38.2c-4.8,9.6-7.5,20.4-7.5,31.8
					s2.7,22.2,7.5,31.8L61.8,113.7L61.8,113.7L61.8,113.7z M61.8,113.7"/>
			</defs>
			<clipPath id="SVGID_6_">
				<use xlink:href="#SVGID_5_"  style="overflow:visible;"/>
			</clipPath>
			<rect id="XMLID_114_" x="-8.7" y="29.2" class="st17" width="109.8" height="142.2"/>
		</g>
		<g>
			<defs>
				<path id="SVGID_7_" d="M101.4,57.6c10.4,0,19.7,3.6,27.1,10.6l20.3-20.3c-12.3-11.4-28.3-18.4-47.3-18.4
					c-27.7,0-51.6,15.9-63.2,39l23.6,18.3C67.4,70.1,83,57.6,101.4,57.6L101.4,57.6L101.4,57.6z M101.4,57.6"/>
			</defs>
			<clipPath id="SVGID_8_">
				<use xlink:href="#SVGID_7_"  style="overflow:visible;"/>
			</clipPath>
			<rect id="XMLID_111_" x="-1.1" y="-9.8" class="st18" width="189.2" height="136"/>
		</g>
	</g>
</g>
</svg>
