<?xml version="1.0" encoding="utf-8"?>
<!-- Generator: Adobe Illustrator 24.2.1, SVG Export Plug-In . SVG Version: 6.00 Build 0)  -->
<svg version="1.1" id="Layer_1" xmlns="http://www.w3.org/2000/svg" xmlns:xlink="http://www.w3.org/1999/xlink" x="0px" y="0px"
	 viewBox="0 0 200 200" style="enable-background:new 0 0 200 200;" xml:space="preserve">
<style type="text/css">
	.st0{fill:#333333;stroke:#FFFFFF;stroke-miterlimit:10;}
	.st1{fill:#00AEEF;}
	.st2{fill:#FFFFFF;}
	.st3{fill:#FF1C0E;}
	.st4{fill:#FFF200;}
	.st5{fill:none;stroke:#231F20;stroke-miterlimit:10;}
	.st6{fill:#3EA999;}
	.st7{fill:#FFFFFF;stroke:#FFFFFF;stroke-miterlimit:10;}
	.st8{fill:#BCBEC0;}
	.st9{fill:#FFFFFF;stroke:#231F20;stroke-miterlimit:10;}
	.st10{fill:#333333;}
	.st11{fill:#54667A;}
	.st12{fill:#FF0000;}
	.st13{fill:#06BE34;}
	.st14{fill:#EEEEEE;}
	.st15{clip-path:url(#SVGID_2_);fill:#3E82F1;}
	.st16{clip-path:url(#SVGID_4_);fill:#32A753;}
	.st17{clip-path:url(#SVGID_6_);fill:#F9BB00;}
	.st18{clip-path:url(#SVGID_8_);fill:#E74133;}
	.st19{fill:#FAE300;}
	.st20{fill:#391B1B;}
	.st21{fill:none;stroke:#231F20;stroke-width:5;stroke-miterlimit:10;}
	.st22{fill:#ED1C24;stroke:#231F20;stroke-width:5;stroke-miterlimit:10;}
	.st23{fill:none;stroke:#000000;stroke-width:5;stroke-miterlimit:10;}
	.st24{fill:#231F20;}
	.st25{fill:#FBB040;}
	.st26{fill:none;}
	.st27{fill:#FAD300;}
</style>
<g>
	<g>
		<path class="st19" d="M199.5,99.9v0.1c0,26.5-10.3,51.4-29,70.2c-18.7,18.8-43.4,29.2-69.7,29.2h-1.7c-26.2,0-51-10.4-69.7-29.2
			c-18.7-18.8-29-43.8-29-70.2v-0.1c0-26.5,10.3-51.4,29-70.2C48.2,10.9,72.9,0.5,99.2,0.5h1.7c26.2,0,51,10.4,69.7,29.2
			C189.2,48.5,199.5,73.5,199.5,99.9z"/>
	</g>
	<g>
		<path class="st20" d="M100,40.3c-35.9,0-65,23-65,51.4c0,18.5,12.3,34.7,30.8,43.7c-1.4,5.1-4.9,18.4-5.6,21.2
			c-0.9,3.5,1.3,3.5,2.7,2.5c1.1-0.7,17.8-12.1,25-17c3.9,0.6,7.9,0.9,12.1,0.9c35.9,0,65-23,65-51.4C165,63.3,135.9,40.3,100,40.3"
			/>
		<g>
			<path class="st19" d="M73.8,76.5h-19c-1.8,0-3.2,1.4-3.2,3.2c0,1.8,1.4,3.2,3.2,3.2H61v22.8c0,0.8,0.3,1.6,0.9,2.2
				c0.6,0.6,1.4,0.9,2.2,0.9h0.7c0.8,0,1.6-0.3,2.2-0.9c0.6-0.6,0.9-1.4,0.9-2.2V83h5.8c1.8,0,3.2-1.4,3.2-3.2
				C77.1,78,75.6,76.5,73.8,76.5z"/>
			<path class="st19" d="M119.5,102.8h-8.8V79.6c0-1.9-1.6-3.5-3.5-3.5c-1.9,0-3.5,1.6-3.5,3.5v25.1c0,0.2,0,0.4,0.1,0.6
				c0,0.2-0.1,0.4-0.1,0.6c0,1.6,1.3,2.9,2.9,2.9h12.9c1.6,0,2.9-1.3,2.9-2.9C122.5,104.2,121.1,102.8,119.5,102.8z"/>
			<path class="st19" d="M147.8,103.9L137.9,91l8.9-8.9c1.2-1.2,1.2-3.2,0-4.4c-1.2-1.2-3.2-1.2-4.4,0l-11,11v-9.1
				c0-1.9-1.6-3.5-3.5-3.5c-1.9,0-3.5,1.6-3.5,3.5v25.8c0,1.9,1.6,3.5,3.5,3.5c1.9,0,3.5-1.6,3.5-3.5v-8l2-2l9.3,12.2
				c1,1.4,3,1.7,4.4,0.6C148.5,107.3,148.8,105.3,147.8,103.9z"/>
			<path class="st19" d="M101,104.8l-9.5-25.9c0,0,0,0,0,0c-0.6-1.6-2.4-2.7-4.4-2.7c-2.3,0-4.2,1.4-4.6,3.3
				c-0.1,0.1-0.1,0.3-0.2,0.4l-9.3,25c-0.6,1.6,0.3,3.4,1.9,4c1.6,0.6,3.4-0.3,4-1.9l1.6-4.6h13l1.6,4.6c0.6,1.6,2.4,2.5,4,1.9
				C100.8,108.2,101.6,106.4,101,104.8z M82.6,96.4L87,83.9c0,0,0.1,0,0.1,0l4.4,12.4H82.6z"/>
		</g>
	</g>
</g>
</svg>
