<?xml version="1.0" encoding="utf-8"?>
<!-- Generator: Adobe Illustrator 24.2.1, SVG Export Plug-In . SVG Version: 6.00 Build 0)  -->
<svg version="1.1" id="Layer_1" xmlns="http://www.w3.org/2000/svg" xmlns:xlink="http://www.w3.org/1999/xlink" x="0px" y="0px"
	 viewBox="0 0 200 200" style="enable-background:new 0 0 200 200;" xml:space="preserve">
<style type="text/css">
	.st0{fill:#333333;stroke:#FFFFFF;stroke-miterlimit:10;}
	.st1{fill:#00AEEF;}
	.st2{fill:#FFFFFF;}
	.st3{fill:#FF1C0E;}
	.st4{fill:#3EA999;}
	.st5{fill:#FFFFFF;stroke:#FFFFFF;stroke-miterlimit:10;}
	.st6{fill:#FFFFFF;stroke:#BCBEC0;stroke-miterlimit:10;}
	.st7{fill:#BCBEC0;}
	.st8{fill:#FFFFFF;stroke:#231F20;stroke-miterlimit:10;}
	.st9{fill:#333333;}
	.st10{fill:#54667A;}
	.st11{fill:#FF0000;}
	.st12{fill:#06BE34;}
	.st13{fill:#EEEEEE;}
	.st14{clip-path:url(#SVGID_2_);fill:#3E82F1;}
	.st15{clip-path:url(#SVGID_4_);fill:#32A753;}
	.st16{clip-path:url(#SVGID_6_);fill:#F9BB00;}
	.st17{clip-path:url(#SVGID_8_);fill:#E74133;}
	.st18{fill:#FAE300;}
	.st19{fill:#391B1B;}
	.st20{fill:#FFFFFF;stroke:#231F20;stroke-width:5;stroke-miterlimit:10;}
	.st21{fill:#ED1C24;stroke:#231F20;stroke-width:5;stroke-miterlimit:10;}
	.st22{fill:#F9ED32;}
	.st23{fill:none;stroke:#231F20;stroke-width:5;stroke-miterlimit:10;}
	.st24{fill:none;stroke:#000000;stroke-width:5;stroke-miterlimit:10;}
	.st25{fill:none;stroke:#231F20;stroke-miterlimit:10;}
	.st26{fill:#231F20;}
	.st27{fill:#FBB040;}
	.st28{fill:none;}
	.st29{fill:#FFFFFF;stroke:#FFFFFF;stroke-width:5;stroke-miterlimit:10;}
	.st30{fill:#FAD300;}
	.st31{fill:#FFF200;}
</style>
<g>
	<g>
		<path class="st2" d="M13.5,69.8h9.8l20,35.5l6.3,12.8h0.4c-0.5-6.2-1.2-13.5-1.2-20.1V69.8h9v60.5h-9.8l-20-35.6L21.8,82h-0.4
			c0.5,6.2,1.2,13.2,1.2,19.8v28.5h-9V69.8z"/>
		<path class="st2" d="M73.8,69.8h35.7v8H83.3v16.8h22.2v8H83.3v19.5h27.1v8H73.8V69.8z"/>
		<path class="st2" d="M116.9,69.8h9.8l5.7,31.5c1.1,6.4,2.1,12.9,3.2,19.4h0.3c1.3-6.5,2.7-13,4.1-19.4l7.8-31.5h8.5l7.8,31.5
			c1.4,6.3,2.7,12.8,4.1,19.4h0.4c1-6.6,2.1-13,3-19.4l5.7-31.5h9.1l-11.9,60.5h-11.7l-8.1-33.6c-1.1-4.8-2-9.3-2.8-13.9h-0.3
			c-0.9,4.6-1.9,9.1-2.9,13.9l-8,33.6h-11.5L116.9,69.8z"/>
	</g>
</g>
</svg>
