<?xml version="1.0" encoding="utf-8"?>
<!-- Generator: Adobe Illustrator 24.2.1, SVG Export Plug-In . SVG Version: 6.00 Build 0)  -->
<svg version="1.1" id="Layer_1" xmlns="http://www.w3.org/2000/svg" xmlns:xlink="http://www.w3.org/1999/xlink" x="0px" y="0px"
	 viewBox="0 0 200 200" style="enable-background:new 0 0 200 200;" xml:space="preserve">
<style type="text/css">
	.st0{fill:#333333;stroke:#FFFFFF;stroke-miterlimit:10;}
	.st1{fill:#00AEEF;}
	.st2{fill:#FFFFFF;}
	.st3{fill:#FF1C0E;}
	.st4{fill:#3EA999;}
	.st5{fill:#FFFFFF;stroke:#FFFFFF;stroke-miterlimit:10;}
	.st6{fill:#FFFFFF;stroke:#BCBEC0;stroke-miterlimit:10;}
	.st7{fill:#BCBEC0;}
	.st8{fill:#FFFFFF;stroke:#231F20;stroke-miterlimit:10;}
	.st9{fill:#333333;}
	.st10{fill:#54667A;}
	.st11{fill:#FF0000;}
	.st12{fill:#06BE34;}
	.st13{fill:#EEEEEE;}
	.st14{clip-path:url(#SVGID_2_);fill:#3E82F1;}
	.st15{clip-path:url(#SVGID_4_);fill:#32A753;}
	.st16{clip-path:url(#SVGID_6_);fill:#F9BB00;}
	.st17{clip-path:url(#SVGID_8_);fill:#E74133;}
	.st18{fill:#FAE300;}
	.st19{fill:#391B1B;}
	.st20{fill:#FFFFFF;stroke:#231F20;stroke-width:5;stroke-miterlimit:10;}
	.st21{fill:#ED1C24;stroke:#231F20;stroke-width:5;stroke-miterlimit:10;}
	.st22{fill:#F9ED32;}
	.st23{fill:none;stroke:#231F20;stroke-width:5;stroke-miterlimit:10;}
	.st24{fill:none;stroke:#000000;stroke-width:5;stroke-miterlimit:10;}
	.st25{fill:none;stroke:#231F20;stroke-miterlimit:10;}
	.st26{fill:#231F20;}
	.st27{fill:#FBB040;}
	.st28{fill:none;}
	.st29{fill:none;stroke:#FFFFFF;stroke-width:5;stroke-miterlimit:10;}
	.st30{fill:#FAD300;}
	.st31{fill:#FFF200;}
</style>
<g>
	<circle class="st29" cx="115.8" cy="20.4" r="10"/>
	<circle class="st29" cx="179.7" cy="84.5" r="10"/>
	<circle class="st29" cx="173.3" cy="27" r="12.5"/>
	<path class="st29" d="M132.3,5.4c0,0,14.3,15.4,0,31.5"/>
	<line class="st29" x1="119.3" y1="40.5" x2="119.3" y2="52.5"/>
	<line class="st29" x1="148.1" y1="81" x2="160.1" y2="81"/>
	<line class="st29" x1="156.9" y1="43.5" x2="135.2" y2="65.3"/>
	<path class="st29" d="M163.2,68.4c0,0,16.2-14.7,32.8,0"/>
	<path class="st29" d="M176.4,109.2c0,0,18.7-1.7,18.7,15.8"/>
	<path class="st29" d="M74.8,5.4c0,0,16-0.7,15.8,18.6"/>
	<polygon class="st29" points="84.2,30.4 163.2,113.2 5.9,194.6 	"/>
	<line class="st29" x1="27.1" y1="172.3" x2="27.1" y2="150.1"/>
	<line class="st29" x1="45.8" y1="135.2" x2="45.8" y2="174"/>
	<line class="st29" x1="64.7" y1="71.4" x2="64.7" y2="164.2"/>
	<line class="st29" x1="84.2" y1="30.4" x2="84.2" y2="154.1"/>
	<line class="st29" x1="103.4" y1="50.5" x2="103.4" y2="144.1"/>
	<line class="st29" x1="123.3" y1="71.4" x2="123.3" y2="133.8"/>
	<line class="st29" x1="141.2" y1="90.1" x2="141.2" y2="124.6"/>
</g>
</svg>
