<?xml version="1.0" encoding="utf-8"?>
<!-- Generator: Adobe Illustrator 24.2.1, SVG Export Plug-In . SVG Version: 6.00 Build 0)  -->
<svg version="1.1" id="Layer_1" xmlns="http://www.w3.org/2000/svg" xmlns:xlink="http://www.w3.org/1999/xlink" x="0px" y="0px"
	 viewBox="0 0 200 200" style="enable-background:new 0 0 200 200;" xml:space="preserve">
<style type="text/css">
	.st0{fill:#333333;stroke:#FFFFFF;stroke-miterlimit:10;}
	.st1{fill:#00AEEF;}
	.st2{fill:#FFFFFF;}
	.st3{fill:#FF1C0E;}
	.st4{fill:#FFF200;}
	.st5{fill:none;stroke:#231F20;stroke-miterlimit:10;}
	.st6{fill:#3EA999;}
	.st7{fill:#FFFFFF;stroke:#FFFFFF;stroke-miterlimit:10;}
	.st8{fill:#BCBEC0;}
	.st9{fill:#FFFFFF;stroke:#231F20;stroke-miterlimit:10;}
	.st10{fill:#333333;}
	.st11{fill:#54667A;}
	.st12{fill:#FF0000;}
	.st13{fill:#06BE34;}
	.st14{fill:#EEEEEE;}
	.st15{clip-path:url(#SVGID_2_);fill:#3E82F1;}
	.st16{clip-path:url(#SVGID_4_);fill:#32A753;}
	.st17{clip-path:url(#SVGID_6_);fill:#F9BB00;}
	.st18{clip-path:url(#SVGID_8_);fill:#E74133;}
	.st19{fill:#FAE300;}
	.st20{fill:#391B1B;}
	.st21{fill:none;stroke:#231F20;stroke-width:5;stroke-miterlimit:10;}
	.st22{fill:#ED1C24;stroke:#231F20;stroke-width:5;stroke-miterlimit:10;}
	.st23{fill:none;stroke:#000000;stroke-width:5;stroke-miterlimit:10;}
	.st24{fill:#231F20;}
	.st25{fill:#FBB040;}
	.st26{fill:none;}
	.st27{fill:#FAD300;}
</style>
<g>
	<g>
		<circle class="st6" cx="99.5" cy="99.4" r="99.4"/>
	</g>
	<g>
		<path class="st2" d="M40.5,114.3c8.3-0.1,14.9-0.5,22.3-2l0.7,6.8c-8.7,1.7-16.2,2-26.3,2h-4.8V74.6h26.7v6.7H40.5V114.3z
			 M91.6,65.9v72.2h-7.8v-37h-8.6v33.4h-7.8V67.5h7.8v27h8.6V65.9H91.6z"/>
		<path class="st2" d="M163.6,65.9v72.5h-8.3V111h-16.6c-3,7.1-8.7,11.3-15.6,11.3c-10.6,0-18.2-9.8-18.2-25.5
			c0-15.5,7.6-25.4,18.2-25.4c6.6,0,11.9,3.8,15.2,10.2h17V65.9H163.6z M133.5,96.7c0-11.2-4.2-18-10.5-18c-6.2,0-10.5,6.8-10.5,18
			c0,11.4,4.3,18.2,10.5,18.2C129.3,114.9,133.5,108.1,133.5,96.7z M155.3,104.2V88.3h-14.8c0.6,2.6,0.9,5.4,0.9,8.4
			c0,2.7-0.2,5.1-0.6,7.4H155.3z"/>
	</g>
</g>
</svg>
