<?xml version="1.0" encoding="utf-8"?>
<!-- Generator: Adobe Illustrator 24.2.1, SVG Export Plug-In . SVG Version: 6.00 Build 0)  -->
<svg version="1.1" id="Layer_1" xmlns="http://www.w3.org/2000/svg" xmlns:xlink="http://www.w3.org/1999/xlink" x="0px" y="0px"
	 viewBox="0 0 200 200" style="enable-background:new 0 0 200 200;" xml:space="preserve">
<style type="text/css">
	.st0{fill:#333333;stroke:#FFFFFF;stroke-miterlimit:10;}
	.st1{fill:#00AEEF;}
	.st2{fill:#FFFFFF;}
	.st3{fill:#FF1C0E;}
	.st4{fill:#3EA999;}
	.st5{fill:#FFFFFF;stroke:#FFFFFF;stroke-miterlimit:10;}
	.st6{fill:#FFFFFF;stroke:#BCBEC0;stroke-miterlimit:10;}
	.st7{fill:#BCBEC0;}
	.st8{fill:#FFFFFF;stroke:#231F20;stroke-miterlimit:10;}
	.st9{fill:#333333;}
	.st10{fill:#54667A;}
	.st11{fill:#FF0000;}
	.st12{fill:#06BE34;}
	.st13{fill:#EEEEEE;}
	.st14{clip-path:url(#SVGID_2_);fill:#3E82F1;}
	.st15{clip-path:url(#SVGID_4_);fill:#32A753;}
	.st16{clip-path:url(#SVGID_6_);fill:#F9BB00;}
	.st17{clip-path:url(#SVGID_8_);fill:#E74133;}
	.st18{fill:#FAE300;}
	.st19{fill:#391B1B;}
	.st20{fill:#FFFFFF;stroke:#231F20;stroke-width:5;stroke-miterlimit:10;}
	.st21{fill:#ED1C24;stroke:#231F20;stroke-width:5;stroke-miterlimit:10;}
	.st22{fill:#F9ED32;}
	.st23{fill:none;stroke:#231F20;stroke-width:5;stroke-miterlimit:10;}
	.st24{fill:none;stroke:#000000;stroke-width:5;stroke-miterlimit:10;}
	.st25{fill:none;stroke:#231F20;stroke-miterlimit:10;}
	.st26{fill:#231F20;}
	.st27{fill:#FBB040;}
	.st28{fill:none;}
	.st29{fill:#FFFFFF;stroke:#FFFFFF;stroke-width:5;stroke-miterlimit:10;}
	.st30{fill:#FAD300;}
	.st31{fill:#FFF200;}
</style>
<g>
</g>
<g>
	<g>
		<path class="st2" d="M31,114.5c10-0.1,17.8-0.6,26.8-2.4l0.9,8.2c-10.5,2-19.4,2.4-31.6,2.4h-5.8V66.9h32.1V75H31V114.5z
			 M92.3,56.5v86.6h-9.4V98.8H72.7V139h-9.3V58.4h9.3v32.4h10.3V56.5H92.3z"/>
		<path class="st2" d="M178.7,56.5v86.9h-10v-32.9h-20c-3.6,8.5-10.5,13.5-18.7,13.5c-12.8,0-21.9-11.8-21.9-30.6
			c0-18.6,9.1-30.5,21.9-30.5c7.9,0,14.3,4.5,18.2,12.3h20.4V56.5H178.7z M142.6,93.5c0-13.4-5.1-21.6-12.6-21.6
			c-7.4,0-12.6,8.2-12.6,21.6c0,13.6,5.2,21.8,12.6,21.8C137.5,115.3,142.6,107.1,142.6,93.5z M168.7,102.4v-19h-17.8
			c0.7,3.2,1.1,6.4,1.1,10.1c0,3.3-0.3,6.1-0.8,8.9H168.7z"/>
	</g>
</g>
</svg>
