<?xml version="1.0" encoding="utf-8"?>
<!-- Generator: Adobe Illustrator 24.2.1, SVG Export Plug-In . SVG Version: 6.00 Build 0)  -->
<svg version="1.1" id="Layer_1" xmlns="http://www.w3.org/2000/svg" xmlns:xlink="http://www.w3.org/1999/xlink" x="0px" y="0px"
	 viewBox="0 0 200 200" style="enable-background:new 0 0 200 200;" xml:space="preserve">
<style type="text/css">
	.st0{fill:#333333;stroke:#FFFFFF;stroke-miterlimit:10;}
	.st1{fill:#00AEEF;}
	.st2{fill:#FFFFFF;}
	.st3{fill:#FF1C0E;}
	.st4{fill:#3EA999;}
	.st5{fill:#FFFFFF;stroke:#FFFFFF;stroke-miterlimit:10;}
	.st6{fill:#FFFFFF;stroke:#BCBEC0;stroke-miterlimit:10;}
	.st7{fill:#BCBEC0;}
	.st8{fill:#FFFFFF;stroke:#231F20;stroke-miterlimit:10;}
	.st9{fill:#333333;}
	.st10{fill:#54667A;}
	.st11{fill:#FF0000;}
	.st12{fill:#06BE34;}
	.st13{fill:#EEEEEE;}
	.st14{clip-path:url(#SVGID_2_);fill:#3E82F1;}
	.st15{clip-path:url(#SVGID_4_);fill:#32A753;}
	.st16{clip-path:url(#SVGID_6_);fill:#F9BB00;}
	.st17{clip-path:url(#SVGID_8_);fill:#E74133;}
	.st18{fill:#FAE300;}
	.st19{fill:#391B1B;}
	.st20{fill:#FFFFFF;stroke:#231F20;stroke-width:5;stroke-miterlimit:10;}
	.st21{fill:#ED1C24;stroke:#231F20;stroke-width:5;stroke-miterlimit:10;}
	.st22{fill:#F9ED32;}
	.st23{fill:none;stroke:#231F20;stroke-width:5;stroke-miterlimit:10;}
	.st24{fill:none;stroke:#000000;stroke-width:5;stroke-miterlimit:10;}
	.st25{fill:none;stroke:#231F20;stroke-miterlimit:10;}
	.st26{fill:#231F20;}
	.st27{fill:#FBB040;}
	.st28{fill:none;}
	.st29{fill:#FFFFFF;stroke:#FFFFFF;stroke-width:5;stroke-miterlimit:10;}
	.st30{fill:#FAD300;}
	.st31{fill:#FFF200;}
</style>
<g>
</g>
<g>
</g>
<g>
	<path class="st7" d="M178.1,170.8l-7.2,7.2c-1.8,1.8-4.8,1.8-6.6,0l-53.9-53.9c-1.8-1.8-1.8-4.8,0-6.6l7.2-7.2
		c1.8-1.8,4.8-1.8,6.6,0l53.9,53.9C179.9,166,179.9,169,178.1,170.8z"/>
	<path class="st7" d="M197.7,182.7l-15,15c-1.7,1.7-4.5,1.7-6.2,0l-50.4-50.4c-2.8-2.8-2.8-7.3,0-10.1l11.1-11.1
		c2.8-2.8,7.3-2.8,10.1,0l50.4,50.4C199.4,178.2,199.4,181,197.7,182.7z"/>
	<path class="st7" d="M72.1,1.1C32.4,1.6,0.6,34.2,1,73.9c0.5,39.7,33,71.6,72.8,71.1c39.7-0.5,71.6-33,71.1-72.8
		C144.4,32.5,111.9,0.7,72.1,1.1z M73.6,130.6c-31.8,0.4-57.9-25.1-58.2-56.9C15,41.9,40.5,15.8,72.3,15.5
		c31.8-0.4,57.9,25.1,58.2,56.9C130.9,104.2,105.4,130.3,73.6,130.6z"/>
</g>
</svg>
