<?xml version="1.0" encoding="utf-8"?>
<!-- Generator: Adobe Illustrator 24.2.1, SVG Export Plug-In . SVG Version: 6.00 Build 0)  -->
<svg version="1.1" id="Layer_1" xmlns="http://www.w3.org/2000/svg" xmlns:xlink="http://www.w3.org/1999/xlink" x="0px" y="0px"
	 viewBox="0 0 200 200" style="enable-background:new 0 0 200 200;" xml:space="preserve">
<style type="text/css">
	.st0{fill:#333333;stroke:#FFFFFF;stroke-miterlimit:10;}
	.st1{fill:#00AEEF;}
	.st2{fill:#FFFFFF;}
	.st3{fill:#FF1C0E;}
	.st4{fill:#FFF200;}
	.st5{fill:none;stroke:#231F20;stroke-miterlimit:10;}
	.st6{fill:#3EA999;}
	.st7{fill:#FFFFFF;stroke:#FFFFFF;stroke-miterlimit:10;}
	.st8{fill:#BCBEC0;}
	.st9{fill:#FFFFFF;stroke:#231F20;stroke-miterlimit:10;}
	.st10{fill:#333333;}
	.st11{fill:#54667A;}
	.st12{fill:#FF0000;}
	.st13{fill:#06BE34;}
	.st14{fill:#EEEEEE;}
	.st15{clip-path:url(#SVGID_2_);fill:#3E82F1;}
	.st16{clip-path:url(#SVGID_4_);fill:#32A753;}
	.st17{clip-path:url(#SVGID_6_);fill:#F9BB00;}
	.st18{clip-path:url(#SVGID_8_);fill:#E74133;}
	.st19{fill:#FAE300;}
	.st20{fill:#391B1B;}
	.st21{fill:none;stroke:#231F20;stroke-width:5;stroke-miterlimit:10;}
	.st22{fill:#ED1C24;stroke:#231F20;stroke-width:5;stroke-miterlimit:10;}
	.st23{fill:none;stroke:#000000;stroke-width:5;stroke-miterlimit:10;}
	.st24{fill:#231F20;}
	.st25{fill:#FBB040;}
	.st26{fill:none;}
	.st27{fill:#FAD300;}
</style>
<g>
	<path d="M177.6,170.8l-7.2,7.2c-1.8,1.8-4.8,1.8-6.6,0l-53.9-53.9c-1.8-1.8-1.8-4.8,0-6.6l7.2-7.2c1.8-1.8,4.8-1.8,6.6,0l53.9,53.9
		C179.4,166,179.4,169,177.6,170.8z"/>
	<path d="M197.2,182.7l-15,15c-1.7,1.7-4.5,1.7-6.2,0l-50.4-50.4c-2.8-2.8-2.8-7.3,0-10.1l11.1-11.1c2.8-2.8,7.3-2.8,10.1,0
		l50.4,50.4C198.9,178.2,198.9,181,197.2,182.7z"/>
	<path d="M71.6,1.1C31.9,1.6,0.1,34.1,0.5,73.9c0.5,39.7,33,71.6,72.8,71.1c39.7-0.5,71.6-33,71.1-72.8
		C143.9,32.5,111.4,0.6,71.6,1.1z M73.1,130.6c-31.8,0.4-57.9-25.1-58.2-56.9C14.5,41.9,40,15.8,71.8,15.5
		c31.8-0.4,57.9,25.1,58.2,56.9C130.4,104.2,104.9,130.2,73.1,130.6z"/>
</g>
</svg>
